<svg id="Layer_1" data-name="Layer 1" xmlns="http://www.w3.org/2000/svg" viewBox="0 0 210 210"><defs><style>.cls-1{fill:#333;}.cls-2{fill:#1565c0;}.cls-3{fill:#2e7d32;}.cls-4{fill:#f9a825;}.cls-5{fill:#c62828;}.cls-10,.cls-6{fill:#e6e6e6;}.cls-6{stroke:#fff;stroke-miterlimit:10;stroke-width:8px;}.cls-7{fill:#b3b3b3;}.cls-8{fill:gray;}.cls-9{fill:#666;}.cls-11{fill:#f2f2f2;}.cls-12{fill:#ccc;}</style></defs><g id="KIT"><rect id="Box" class="cls-1" x="99" width="111" height="197" rx="2" transform="translate(309 197) rotate(-180)"/><circle id="Listen" class="cls-2" cx="193" cy="15" r="10"/><circle id="Send" class="cls-3" cx="168" cy="15" r="10"/><circle id="Cancel" class="cls-4" cx="142" cy="15" r="10"/><circle id="Record" class="cls-5" cx="117" cy="15" r="10"/><g id="Photo"><rect class="cls-6" x="86.96" y="67.75" width="135" height="90" transform="translate(275.14 -35.6) rotate(93)"/><path class="cls-7" d="M175.45,93.84a27.91,27.91,0,1,0,5.91,27.35,27.91,27.91,0,0,0-5.91-27.35h0m-29.37,12.23a3,3,0,1,1-2.16.76,3,3,0,0,1,2.16-.76h0m20.16,14.3a12.51,12.51,0,0,1-23.8-1.24,1,1,0,0,1,.21-.87,1,1,0,0,1,.83-.35l21.85,1.15a1,1,0,0,1,.79.43,1,1,0,0,1,.12.88M163.68,113a3,3,0,1,1,2.15-.76,2.94,2.94,0,0,1-2.15.76"/></g></g><g id="Phone"><rect id="Phone-2" data-name="Phone" class="cls-8" width="89" height="210" rx="8"/><rect id="Bottom_grille" data-name="Bottom grille" class="cls-9" x="28" y="205" width="32" height="2" rx="1"/><rect id="Top_grille" data-name="Top grille" class="cls-9" x="29" y="3" width="32" height="2" rx="1"/><rect id="Page" class="cls-10" x="4" y="8" width="81" height="194" rx="2"/><circle id="Record-2" data-name="Record" class="cls-5" cx="72" cy="189" r="8"/><g id="Message_4" data-name="Message 4"><rect class="cls-4" x="22" y="97" width="60" height="16" rx="2"/><path class="cls-11" d="M33.5,104.13l-6-3.46a1,1,0,0,0-1.5.87v6.92a1,1,0,0,0,1.5.87l6-3.46A1,1,0,0,0,33.5,104.13Z"/></g><g id="Message_3" data-name="Message 3"><rect class="cls-4" x="22" y="72" width="60" height="16" rx="2"/><path class="cls-11" d="M33.5,79.13l-6-3.46a1,1,0,0,0-1.5.87v6.92a1,1,0,0,0,1.5.87l6-3.46A1,1,0,0,0,33.5,79.13Z"/></g><g id="Message_2" data-name="Message 2"><rect class="cls-11" x="7" y="47" width="60" height="16" rx="2"/><path class="cls-12" d="M17.38,53.86l-6-3.47a1,1,0,0,0-1.5.87v6.93a1,1,0,0,0,1.5.86l6-3.46A1,1,0,0,0,17.38,53.86Z"/></g><g id="Message_1" data-name="Message 1"><rect class="cls-4" x="22" y="22" width="60" height="16" rx="2"/><path class="cls-11" d="M33.38,28.86l-6-3.47a1,1,0,0,0-1.5.87v6.93a1,1,0,0,0,1.5.86l6-3.46A1,1,0,0,0,33.38,28.86Z"/></g><path id="Header" class="cls-11" d="M6,7H83a2,2,0,0,1,2,2V19a0,0,0,0,1,0,0H4a0,0,0,0,1,0,0V9A2,2,0,0,1,6,7Z"/></g></svg>